# xmcd
#
# Track frame offsets:
# 150
# 28840
# 51291
# 72038
# 93867
# 116580
# 144032
# 176552
# 196724
# 221946
#
# Disc length: 3184 seconds
#
#
# Revision: 1
# Processed by: cddbd v1.5.1PL0 Copyright (c) Steve Scherf et al.
# Submitted via: FreeRIP 2.90 
#
DISCID=880c6e0a
DTITLE=CESAR CAMARGO MARIANO E ROMERO LUBAMBO - Duo
DYEAR=2003
DGENRE=Jazz
TTITLE0=Samba Dobrado
TTITLE1=Choro #7
TTITLE2=Joy Spring
TTITLE3=Mr. Jr.
TTITLE4=Era Bom
TTITLE5=O que É, o que é
TTITLE6=Fotografia
TTITLE7=Short Cut
TTITLE8=April Child
TTITLE9=Wave
EXTD=YEAR: 2003
EXTT0=
EXTT1=
EXTT2=
EXTT3=
EXTT4=
EXTT5=
EXTT6=
EXTT7=
EXTT8=
EXTT9=
PLAYORDER=
